# xmcd
# Track frame offsets:
# 183
# 13458
# 25840
# 37345
# 53753
# 64858
# 79013
# 90328
# 103383
# 115975
# 128213
# 144595
# 158338
# 172275
# 186595
# 197448
#
# Disc length: 2848 seconds
# Revision: 0
# Processed by: cddbd v1.5.2PL0 Copyright (c) Steve Scherf et al.
# Submitted via: VisiTrax 2.11.3.279 - For more info visit www.synapsa.com
#
DISCID=e40b1e10
DTITLE=Charlie Rich - 16 Greatest Hits
DYEAR=1991
DGENRE=Country
TTITLE0=Behind Closed Doors
TTITLE1=The Most Beautiful Girl
TTITLE2=Daddy Don't You Walk So Fast
TTITLE3=My Elusive Dreams
TTITLE4=I Love My Friend
TTITLE5=A Sunday Kind Of Woman
TTITLE6=Papa Was a Good Man
TTITLE7=Spanish Eyes
TTITLE8=A Very Special Love Song
TTITLE9=Rollin' With The FLow
TTITLE10=Life Has Its Little Up And Downs
TTITLE11=Every Time You Touch Me (I Get High)
TTITLE12=Since I Fell For You
TTITLE13=On My Knees
TTITLE14=Somebody Wrote That Song For Me
TTITLE15=That's The Way A Cowboy Rocks And Rolls
EXTD=RCD 204 RAINBOW
EXTT0=
EXTT1=
EXTT2=
EXTT3=
EXTT4=
EXTT5=
EXTT6=
EXTT7=
EXTT8=
EXTT9=
EXTT10=
EXTT11=
EXTT12=
EXTT13=
EXTT14=
EXTT15=
PLAYORDER=
